<?xml version="1.0" encoding="UTF-8"?>
<svg id="_Слой_2" data-name="Слой 2" xmlns="http://www.w3.org/2000/svg" xmlns:xlink="http://www.w3.org/1999/xlink" viewBox="0 0 24 23">
  <defs>
    <style>
      .cls-1 {
        fill: #fff;
      }

      .cls-2 {
        clip-path: url(#clippath-1);
      }

      .cls-3 {
        clip-path: url(#clippath);
      }

      .cls-4 {
        fill: none;
      }
    </style>
    <clipPath id="clippath">
      <circle class="cls-4" cx="12" cy="8" r="5"/>
    </clipPath>
    <clipPath id="clippath-1">
      <ellipse class="cls-4" cx="12" cy="11.5" rx="12" ry="11.5"/>
    </clipPath>
  </defs>
  <g id="_Слой_1-2" data-name="Слой 1">
    <path class="cls-1" d="m4,17c0-.6.55-1.35,2.18-2,1.54-.61,3.66-.97,5.83-.99,2.17-.03,4.28.27,5.81.87,1.59.62,2.18,1.39,2.18,2.13h2c0-2.04-1.66-3.3-3.45-4-1.85-.72-4.24-1.03-6.56-1-2.33.03-4.71.4-6.55,1.14-1.74.69-3.44,1.91-3.44,3.86h2Zm16,0c0,.55.45,1,1,1s1-.45,1-1h-2Zm-18,0c0,.55.45,1,1,1s1-.45,1-1h-2Z"/>
    <g class="cls-3">
      <path class="cls-1" d="m12,5c1.66,0,3,1.34,3,3h4c0-3.87-3.13-7-7-7v4Zm-3,3c0-1.66,1.34-3,3-3V1c-3.87,0-7,3.13-7,7h4Zm3,3c-1.66,0-3-1.34-3-3h-4c0,3.87,3.13,7,7,7v-4Zm3-3c0,1.66-1.34,3-3,3v4c3.87,0,7-3.13,7-7h-4Z"/>
    </g>
    <g class="cls-2">
      <path class="cls-1" d="m12,2c5.6,0,10,4.33,10,9.5h4c0-7.54-6.35-13.5-14-13.5V2ZM2,11.5C2,6.33,6.4,2,12,2V-2C4.35-2-2,3.96-2,11.5H2Zm10,9.5c-5.6,0-10-4.33-10-9.5H-2c0,7.54,6.35,13.5,14,13.5v-4Zm10-9.5c0,5.17-4.4,9.5-10,9.5v4c7.65,0,14-5.96,14-13.5h-4Z"/>
    </g>
  </g>
</svg>