<?xml version="1.0" encoding="UTF-8"?>
<svg id="_Слой_2" data-name="Слой 2" xmlns="http://www.w3.org/2000/svg" viewBox="0 0 40 36.34">
  <g id="_Слой_1-2" data-name="Слой 1">
    <path d="m3.5,33.34c-.28,0-.5-.22-.5-.5H0c0,1.93,1.57,3.5,3.5,3.5v-3Zm33,3c1.93,0,3.5-1.57,3.5-3.5h-3c0,.28-.22.5-.5.5v3Zm-18.91-6.04c0-1.47,1.19-2.67,2.67-2.67v-3c-3.13,0-5.67,2.54-5.67,5.67h3Zm2.67-2.67c1.47,0,2.67,1.19,2.67,2.67h3c0-3.13-2.54-5.67-5.67-5.67v3Zm19.74-8.42c0-1.83-.77-3.57-2.12-4.8l-2.02,2.22c.73.66,1.14,1.6,1.14,2.59h3ZM23.09.91c-1.3-1.18-3.26-1.22-4.61-.1l1.93,2.3c.19-.16.47-.16.66.01l2.02-2.22ZM2.32,14.37c-1.47,1.23-2.32,3.06-2.32,4.98h3c0-1.03.46-2.02,1.25-2.68l-1.93-2.3Zm-2.32,4.98v13.5h3v-13.5H0ZM18.48.82L2.32,14.37l1.93,2.3L20.4,3.12l-1.93-2.3Zm19.4,13.6L23.09.91l-2.02,2.22,14.8,13.5,2.02-2.22Zm2.12,18.42v-13.62h-3v13.62h3Zm-15.57,3.5h12.07v-3h-12.07v3Zm-1.5-6.04v4.54h3v-4.54h-3Zm-5.34,4.54v-4.54h-3v4.54h3Zm-14.09,1.5h12.59v-3H3.5v3ZM36.87,15.53l-1.01,1.11,1.01-1.11ZM19.44,1.97l-.96-1.15.96,1.15Zm2.63.06l-1.01,1.11,1.01-1.11ZM3.29,15.52l-.96-1.15.96,1.15Zm21.14,19.33h-1.5v1.5h1.5v-1.5Zm-8.34,0v1.5h1.5v-1.5h-1.5Z"/>
  </g>
</svg>