<?xml version="1.0" encoding="UTF-8"?>
<svg id="_Слой_2" data-name="Слой 2" xmlns="http://www.w3.org/2000/svg" viewBox="0 0 44.07 40.74">
  <g id="_Слой_1-2" data-name="Слой 1">
    <path d="m30.13,19.03L44.07,2.27l-2.31-1.92-13.94,16.76,2.31,1.92Zm3.6,3.78l-3.49-5.54-2.54,1.6,3.49,5.54,2.54-1.6ZM5.31,40.74l27.89-15.82-1.48-2.61L3.83,38.13l1.48,2.61Zm9.54-17.35l-11.48,15.14,2.39,1.81,11.48-15.14-2.39-1.81Zm-10.42.82l11.41,1.57.41-2.97-11.41-1.57-.41,2.97ZM42.19,0L3.9,21.42l1.46,2.62L43.65,2.62l-1.46-2.62Zm-13.2,18.07l-1.15-.96-.7.84.58.92,1.27-.8Zm3.49,5.54l.74,1.3,1.37-.77-.84-1.33-1.27.8Zm-27.89,15.82l-1.2-.91,1.94,2.21-.74-1.3Zm11.48-15.14l1.2.91,1.55-2.04-2.54-.35-.2,1.49Zm-11.41-1.57l-.73-1.31-3.9,2.18,4.43.61.2-1.49ZM42.92,1.31l1.15.96-1.89-2.27.73,1.31Z"/>
  </g>
</svg>