<?xml version="1.0" encoding="UTF-8"?>
<svg id="_Слой_2" data-name="Слой 2" xmlns="http://www.w3.org/2000/svg" viewBox="0 0 65.18 40.33">
  <defs>
    <style>
      .cls-1 {
        fill: #00d385;
      }
    </style>
  </defs>
  <g id="_Слой_1-2" data-name="Слой 1">
    <path class="cls-1" d="m6.09,6.22c-1.19,0-2.22-.84-2.45-2.01l-2.94.59c.51,2.57,2.77,4.42,5.39,4.42v-3Zm1.79,11.56c-3.04,0-5.5,2.46-5.5,5.5h3c0-1.38,1.12-2.5,2.5-2.5v-3Zm13.57,4.9c-1.14.36-3.15.88-4.28.88v3c1.64,0,4.06-.67,5.18-1.02l-.9-2.86Zm-4.28-18.34c5.89,0,9.24,3.85,10,8.12.77,4.33-1.16,8.79-5.72,10.23l.9,2.86c6.33-1.99,8.74-8.17,7.77-13.61-.98-5.52-5.44-10.59-12.95-10.59v3Zm9.62,34.16l-3.43-14.73-2.92.68,3.43,14.73,2.92-.68Zm-6.36,1.84h4.89v-3h-4.89v3Zm-4.72-14.93l3.26,13.78,2.92-.69-3.26-13.78-2.92.69Zm-7.21,11.93H3.88v3h4.62v-3Zm-1.5-12.28v13.78h3v-13.78h-3Zm10.17-1.5h-8.67v3h8.67v-3ZM1.83,4.33h15.34V1.33H1.83v3Zm1.81-.12l-.34-1.67L.36,3.13l.34,1.67,2.94-.59Zm-1.26,19.06v15.56h3v-15.56h-3Zm14.79-5.5H7.88v3h9.29v-3Zm0-8.56c1.63,0,2.69.57,3.36,1.31.69.77,1.06,1.83,1.04,2.94-.02,1.12-.42,2.2-1.13,2.98-.69.76-1.75,1.32-3.27,1.32v3c2.33,0,4.2-.89,5.49-2.29,1.26-1.38,1.89-3.19,1.92-4.96.03-1.77-.55-3.6-1.81-5-1.29-1.43-3.19-2.3-5.59-2.3v3Zm-11.08,0h11.08v-3H6.09v3Zm19.24,29.61v1.5h1.89l-.43-1.84-1.46.34Zm-4.89,0l-1.46.35.27,1.15h1.19v-1.5Zm-11.93,0v1.5h1.5v-1.5h-1.5Zm0-13.78v-1.5h-1.5v1.5h1.5ZM1.83,2.83v-1.5H0l.36,1.79,1.47-.29Zm2.05,36h-1.5v1.5h1.5v-1.5Z"/>
    <path class="cls-1" d="m50.45,35.96c.17-.42.76-.42.93,0l-2.78,1.12c.84,2.09,3.81,2.08,4.64-.01l-2.79-1.11Zm14.55-28.43c.35-.87.18-1.86-.43-2.56l-2.27,1.96c-.12-.14-.16-.34-.09-.51l2.79,1.11Zm-25.55-1.11c.07.17.04.37-.09.51l-2.27-1.96c-.61.71-.78,1.7-.43,2.57l2.78-1.12Zm.35-4.57l-2.7,3.12,2.27,1.96,2.7-3.12-2.27-1.96Zm19.8,1.96l2.7,3.12,2.27-1.96-2.7-3.12-2.27,1.96Zm-8.22,32.14l-11.92-29.54-2.78,1.12,11.92,29.54,2.78-1.12ZM39.54,3.41l9.99,24.13,2.77-1.15L42.32,2.26l-2.77,1.15Zm13.69,33.66l11.77-29.54-2.79-1.11-11.77,29.54,2.79,1.11Zm-.93-9.55L62.12,3.4l-2.78-1.13-9.81,24.13,2.78,1.13Zm11.13-21.57l1.13-.98-1.13.98Zm.17,1.02l1.39.56-1.39-.56Zm-22.68-4.15l1.39-.57L41.39.01l-1.59,1.84,1.13.98Zm19.8,0l1.13-.98-1.6-1.85-.92,2.27,1.39.57Zm-9.81,24.13l-1.39.57,1.4,3.38,1.38-3.39-1.39-.57Z"/>
  </g>
</svg>