<?xml version="1.0" encoding="UTF-8"?>
<svg id="_Слой_2" data-name="Слой 2" xmlns="http://www.w3.org/2000/svg" xmlns:xlink="http://www.w3.org/1999/xlink" viewBox="0 0 107.5 39">
  <defs>
    <style>
      .cls-1 {
        clip-path: url(#clippath-1);
      }

      .cls-2 {
        clip-path: url(#clippath);
      }

      .cls-3 {
        fill: none;
      }
    </style>
    <clipPath id="clippath">
      <ellipse class="cls-3" cx="91" cy="19.5" rx="11.5" ry="12"/>
    </clipPath>
    <clipPath id="clippath-1">
      <ellipse class="cls-3" cx="90.5" cy="19.5" rx="17" ry="18"/>
    </clipPath>
  </defs>
  <g id="_Слой_1-2" data-name="Слой 1">
    <path d="m29.56,3c2.45,0,4.44,1.99,4.44,4.44h3c0-4.11-3.33-7.44-7.44-7.44v3Zm4.44,27.76c0,2.89-2.35,5.24-5.24,5.24v3c4.55,0,8.24-3.69,8.24-8.24h-3ZM28.76,3h.79V0h-.79v3Zm1.5.09v-1.59h-3v1.59h3Zm0,13.51V3.09h-3v13.51h3Zm0,2.05v-2.05s-3,0-3,0v2.05s3,0,3,0Zm-1.97,3.11c-1.28,0-2.58-.02-3.74.03-1.16.05-2.33.18-3.36.55-1.07.38-2.04,1.02-2.71,2.1-.65,1.04-.93,2.34-.93,3.87h3c0-1.18.22-1.87.47-2.28.24-.38.59-.65,1.17-.86.61-.22,1.43-.33,2.5-.38,1.07-.05,2.24-.02,3.61-.02v-3Zm-10.74,6.54c0,1.55.32,2.88,1.02,3.95.71,1.08,1.71,1.76,2.82,2.18,2.08.79,4.84.77,7.37.77v-3c-2.75,0-4.85-.02-6.3-.57-.66-.25-1.09-.58-1.38-1.02-.29-.45-.53-1.15-.53-2.3h-3ZM34,7.44v23.32h3V7.44h-3Zm-6.74,11.2v18.86h3v-18.86h-3Zm-14.26,10.56c0,2.06,0,3.82.25,5.16.28,1.46.9,2.69,2.29,3.48,1.22.69,2.88.94,4.89,1.05,2.06.12,4.79.1,8.33.1v-3c-3.59,0-6.21.01-8.16-.1-2-.11-3.02-.35-3.58-.67-.39-.22-.66-.54-.83-1.43-.19-1.01-.2-2.42-.2-4.61h-3Zm15.76-12.06c-3.54,0-6.29,0-8.37.17-2.04.17-3.75.52-5,1.44-1.35,1-1.9,2.45-2.15,4.12-.24,1.62-.24,3.74-.24,6.33h3c0-2.69,0-4.53.21-5.88.2-1.3.53-1.83.97-2.15.53-.39,1.5-.7,3.46-.87,1.93-.16,4.53-.16,8.12-.16v-3Zm0-15.64V0h-1.5v1.5h1.5Zm0,15.1h1.5s0,0,0,0h-1.5Zm-.47,8.15c.83,0,1.5-.67,1.5-1.5s-.67-1.5-1.5-1.5v3Zm.47,10.43c.83,0,1.5-.67,1.5-1.5s-.67-1.5-1.5-1.5v3Z"/>
    <path d="m2.61,39c3.53,0,6.39-2.86,6.39-6.39h-3c0,1.87-1.52,3.39-3.39,3.39v3ZM9,6.39C9,2.86,6.14,0,2.61,0v3c1.87,0,3.39,1.52,3.39,3.39h3Zm-6.39,29.61c.21,0,.39.17.39.39H0c0,1.44,1.17,2.61,2.61,2.61v-3ZM1.5,3h1.11V0h-1.11v3Zm1.5,33.39V1.5H0v34.89h3Zm6-3.77V6.39h-3v26.23h3ZM1.5,1.5V0H0v1.5h1.5Z"/>
    <path d="m49.96,7.18c-2.74,0-4.96-2.22-4.96-4.96h-3c0,4.4,3.57,7.96,7.96,7.96v-3Zm-3.13,7.61c-2.67,0-4.84,2.17-4.84,4.84h3c0-1.01.82-1.84,1.84-1.84v-3Zm17.16,4.63c0,1.01-.82,1.84-1.84,1.84v3c2.67,0,4.84-2.17,4.84-4.84h-3Zm3-12C67,3.32,63.68,0,59.58,0v3c2.44,0,4.42,1.98,4.42,4.42h3Zm-18.54,21.39c-1.77,0-3.48.73-4.67,1.91-1.21,1.2-1.95,2.95-1.5,4.88l2.92-.68c-.17-.73.07-1.46.69-2.07.64-.63,1.59-1.04,2.56-1.04v-3Zm2.4,7.18c-2.6,0-4-.01-4.86-.23-.37-.09-.49-.2-.54-.25-.05-.06-.16-.19-.25-.59l-2.92.68c.17.72.46,1.42,1.01,1.99.55.58,1.24.89,1.96,1.08,1.32.34,3.21.33,5.61.33v-3Zm16.13-.51c0-3.89-3.52-6.67-7.42-6.67v3c2.64,0,4.42,1.82,4.42,3.67h3Zm-7.42-6.67h-11.11v3h11.11v-3Zm4.42,6.67v2.01h3v-2.01h-3Zm1.5.51h-.59v3h.59v-3Zm-.59,0h-14.04v3h14.04v-3ZM42,1.5v.72h3v-.72h-3ZM59.58,0h-16.08v3h16.08V0Zm4.42,7.42v1.26h3v-1.26h-3Zm1.5-.24h-.59v3h.59v-3Zm-2.59,10.61c.35,0,1.09.45,1.09,1.63h3c0-2.28-1.58-4.63-4.09-4.63v3Zm-16.82,3.46c-.35,0-1.09-.45-1.09-1.63h-3c0,2.28,1.58,4.63,4.09,4.63v-3Zm16.08,0h-16.08v3h16.08v-3Zm-15.33-3.46h16.08v-3h-16.08v3Zm18.07-10.61h-14.94v3h14.94v-3Zm.59,30.32v1.5h1.5v-1.5h-1.5ZM43.5,1.5V0h-1.5v1.5h1.5Zm22,7.18v1.5h1.5v-1.5h-1.5Z"/>
    <g class="cls-2">
      <path d="m91,10.5c4.58,0,8.5,3.91,8.5,9h6c0-8.16-6.37-15-14.5-15v6Zm-8.5,9c0-5.09,3.92-9,8.5-9v-6c-8.13,0-14.5,6.84-14.5,15h6Zm8.5,9c-4.58,0-8.5-3.91-8.5-9h-6c0,8.16,6.37,15,14.5,15v-6Zm8.5-9c0,5.09-3.92,9-8.5,9v6c8.13,0,14.5-6.84,14.5-15h-6Z"/>
    </g>
    <g class="cls-1">
      <path d="m90.5,4.5c7.57,0,14,6.55,14,15h6c0-11.43-8.8-21-20-21v6Zm-14,15c0-8.45,6.43-15,14-15V-1.5c-11.2,0-20,9.57-20,21h6Zm14,15c-7.57,0-14-6.55-14-15h-6c0,11.43,8.8,21,20,21v-6Zm14-15c0,8.45-6.43,15-14,15v6c11.2,0,20-9.57,20-21h-6Z"/>
    </g>
  </g>
</svg>