<?xml version="1.0" encoding="UTF-8"?>
<svg id="_Слой_2" data-name="Слой 2" xmlns="http://www.w3.org/2000/svg" viewBox="0 0 46.75 30.38">
  <defs>
    <style>
      .cls-1 {
        fill: #d9d9d9;
      }
    </style>
  </defs>
  <g id="_Слой_1-2" data-name="Слой 1">
    <path d="m5,7.02l37-.02v-3s-37,.02-37,.02v3Zm37-.02c.83,0,1.5-.67,1.5-1.5s-.67-1.5-1.5-1.5v3ZM5,4.02c-.83,0-1.5.67-1.5,1.5,0,.83.67,1.5,1.5,1.5v-3Z"/>
    <path d="m7,3h32V0H7v3Zm32,0c.83,0,1.5-.67,1.5-1.5s-.67-1.5-1.5-1.5v3ZM7,0c-.83,0-1.5.67-1.5,1.5s.67,1.5,1.5,1.5V0Z"/>
    <rect y="7.8" width="46.75" height="22.57" rx="5" ry="5"/>
    <path class="cls-1" d="m27.2,17.69c1.52.72,1.52,2.89,0,3.61l-6.09,2.9c-1.33.63-2.86-.34-2.86-1.81v-5.79c0-1.47,1.53-2.44,2.86-1.81l6.09,2.9Z"/>
  </g>
</svg>